<svg xmlns="http://www.w3.org/2000/svg" xmlns:xlink="http://www.w3.org/1999/xlink" width="500" zoomAndPan="magnify" viewBox="0 0 375 374.999991" height="500" preserveAspectRatio="xMidYMid meet" version="1.0"><defs><clipPath id="567b12e62a"><path d="M 27.253906 27.253906 L 347.503906 27.253906 L 347.503906 347.503906 L 27.253906 347.503906 Z M 27.253906 27.253906 " clip-rule="nonzero"/></clipPath></defs><rect x="-37.5" width="450" fill="#ffffff" y="-37.499999" height="449.999989" fill-opacity="1"/><rect x="-37.5" width="450" fill="#ffffff" y="-37.499999" height="449.999989" fill-opacity="1"/><g clip-path="url(#567b12e62a)"><path fill="#6d8674" d="M 347.738281 27.253906 L 347.738281 347.738281 L 27.253906 347.738281 L 27.253906 27.253906 L 232.011719 27.253906 L 232.011719 187.496094 C 232.011719 212.050781 212.050781 232.011719 187.496094 232.011719 C 162.945312 232.011719 142.980469 212.050781 142.980469 187.496094 L 71.769531 187.496094 C 71.769531 251.316406 123.695312 303.222656 187.496094 303.222656 C 251.300781 303.222656 303.222656 251.300781 303.222656 187.496094 L 303.222656 27.253906 Z M 347.738281 27.253906 " fill-opacity="1" fill-rule="nonzero"/></g></svg>